<svg width="15" height="4" viewBox="0 0 15 4" fill="none" xmlns="http://www.w3.org/2000/svg">
<path d="M7.97591 2.75C8.39179 2.75 8.72892 2.41421 8.72892 2C8.72892 1.58579 8.39179 1.25 7.97591 1.25C7.56004 1.25 7.2229 1.58579 7.2229 2C7.2229 2.41421 7.56004 2.75 7.97591 2.75Z" stroke="black" stroke-width="2" stroke-linecap="round" stroke-linejoin="round"/>
<path d="M13.247 2.75C13.6629 2.75 14 2.41421 14 2C14 1.58579 13.6629 1.25 13.247 1.25C12.8311 1.25 12.494 1.58579 12.494 2C12.494 2.41421 12.8311 2.75 13.247 2.75Z" stroke="black" stroke-width="2" stroke-linecap="round" stroke-linejoin="round"/>
<path d="M2.70482 2.75C3.1207 2.75 3.45784 2.41421 3.45784 2C3.45784 1.58579 3.1207 1.25 2.70482 1.25C2.28895 1.25 1.95181 1.58579 1.95181 2C1.95181 2.41421 2.28895 2.75 2.70482 2.75Z" stroke="black" stroke-width="2" stroke-linecap="round" stroke-linejoin="round"/>
</svg>
