<svg width="20" height="20" viewBox="0 0 20 20" fill="none" xmlns="http://www.w3.org/2000/svg">
<rect width="20" height="20" rx="4" fill="black"/>
<path fill-rule="evenodd" clip-rule="evenodd" d="M9.05322 4.51831C9.70523 3.8663 10.5896 3.5 11.5116 3.5H13.3256C13.5761 3.5 13.7791 3.70303 13.7791 3.95349V6.37209C13.7791 6.62255 13.5761 6.82558 13.3256 6.82558H11.5116C11.4716 6.82558 11.4331 6.84151 11.4048 6.86986C11.3764 6.8982 11.3605 6.93665 11.3605 6.97674V8.33721H13.3256C13.4652 8.33721 13.5971 8.40155 13.683 8.51162C13.769 8.62168 13.7994 8.76521 13.7655 8.90068L13.1609 11.3193C13.1104 11.5212 12.929 11.6628 12.7209 11.6628H11.3605V16.0465C11.3605 16.297 11.1574 16.5 10.907 16.5H8.48839C8.23793 16.5 8.0349 16.297 8.0349 16.0465V11.6628H6.67444C6.42398 11.6628 6.22095 11.4598 6.22095 11.2093V8.7907C6.22095 8.54024 6.42398 8.33721 6.67444 8.33721H8.0349V6.97674C8.0349 6.05465 8.4012 5.17033 9.05322 4.51831ZM11.5116 4.40698C10.8301 4.40698 10.1765 4.67772 9.69455 5.15964C9.21262 5.64157 8.94188 6.2952 8.94188 6.97674V8.7907C8.94188 9.04115 8.73884 9.24419 8.48839 9.24419H7.12792V10.7558H8.48839C8.73884 10.7558 8.94188 10.9588 8.94188 11.2093V15.593H10.4535V11.2093C10.4535 10.9588 10.6565 10.7558 10.907 10.7558H12.3669L12.7448 9.24419H10.907C10.6565 9.24419 10.4535 9.04115 10.4535 8.7907V6.97674C10.4535 6.69611 10.565 6.42697 10.7634 6.22853C10.9619 6.03009 11.231 5.9186 11.5116 5.9186H12.8721V4.40698H11.5116Z" fill="white"/>
</svg>
