<svg width="20" height="20" viewBox="0 0 20 20" fill="none" xmlns="http://www.w3.org/2000/svg">
<rect x="0.5" y="0.5" width="19" height="19" rx="3.5" fill="black"/>
<rect x="0.5" y="0.5" width="19" height="19" rx="3.5" stroke="black"/>
<path d="M13 4H7C5.34315 4 4 5.34315 4 7V13C4 14.6569 5.34315 16 7 16H13C14.6569 16 16 14.6569 16 13V7C16 5.34315 14.6569 4 13 4Z" stroke="white" stroke-width="1.5" stroke-linecap="round" stroke-linejoin="round"/>
<path d="M12.4 9.622C12.4741 10.1213 12.3888 10.6313 12.1563 11.0794C11.9238 11.5275 11.5559 11.8908 11.105 12.1178C10.6541 12.3448 10.1431 12.4238 9.64469 12.3436C9.14629 12.2634 8.68588 12.028 8.32892 11.6711C7.97197 11.3141 7.73666 10.8537 7.65646 10.3553C7.57626 9.85693 7.65526 9.34593 7.88222 8.89502C8.10917 8.44411 8.47253 8.07624 8.92061 7.84374C9.36869 7.61124 9.87867 7.52595 10.378 7.6C10.8874 7.67553 11.3589 7.91288 11.723 8.27698C12.0871 8.64109 12.3245 9.11264 12.4 9.622Z" stroke="white" stroke-width="1.5" stroke-linecap="round" stroke-linejoin="round"/>
<path d="M13.3 6.7H13.306" stroke="white" stroke-width="1.5" stroke-linecap="round" stroke-linejoin="round"/>
</svg>
